<svg width="41" height="43" viewBox="0 0 41 43" fill="none" xmlns="http://www.w3.org/2000/svg">
<path d="M18.6931 6.64948C19.2832 6.04178 19.6145 5.21842 19.6145 4.36001C19.6145 3.5016 19.2832 2.67823 18.6931 2.07053C18.4718 1.84307 18.3474 1.53457 18.3474 1.21289C18.3474 0.891212 18.4718 0.582709 18.6931 0.355248C18.9145 0.127786 19.2147 2.39669e-09 19.5278 0C19.8409 -2.39669e-09 20.1411 0.127786 20.3625 0.355248C21.3934 1.4179 21.9723 2.85715 21.9723 4.35758C21.9723 5.85802 21.3934 7.29727 20.3625 8.35992C19.7724 8.96762 19.4411 9.79098 19.4411 10.6494C19.4411 11.5078 19.7724 12.3312 20.3625 12.9389C20.4721 13.0515 20.5591 13.1852 20.6184 13.3324C20.6777 13.4795 20.7082 13.6372 20.7082 13.7965C20.7082 13.9558 20.6777 14.1135 20.6184 14.2607C20.5591 14.4078 20.4721 14.5415 20.3625 14.6542C20.2529 14.7668 20.1228 14.8561 19.9795 14.9171C19.8363 14.978 19.6828 15.0094 19.5278 15.0094C19.3728 15.0094 19.2193 14.978 19.0761 14.9171C18.9329 14.8561 18.8027 14.7668 18.6931 14.6542C17.6622 13.5915 17.0833 12.1523 17.0833 10.6518C17.0833 9.15138 17.6622 7.71213 18.6931 6.64948ZM25.7667 8.45683C24.9673 9.27986 24.5183 10.3951 24.5183 11.5579C24.5183 12.7207 24.9673 13.836 25.7667 14.659C25.9881 14.8865 26.2883 15.0142 26.6014 15.0142C26.9145 15.0142 27.2147 14.8865 27.4361 14.659C27.6574 14.4315 27.7818 14.123 27.7818 13.8014C27.7818 13.4797 27.6574 13.1712 27.4361 12.9437C27.0787 12.575 26.8781 12.0758 26.8781 11.5555C26.8781 11.0351 27.0787 10.536 27.4361 10.1673C27.8325 9.76006 28.1469 9.27661 28.3614 8.74452C28.576 8.21243 28.6864 7.64213 28.6864 7.06619C28.6864 6.49024 28.576 5.91994 28.3614 5.38786C28.1469 4.85577 27.8325 4.37231 27.4361 3.9651C27.3265 3.85248 27.1963 3.76313 27.0531 3.70218C26.9099 3.64123 26.7564 3.60986 26.6014 3.60986C26.4464 3.60986 26.2929 3.64123 26.1497 3.70218C26.0065 3.76313 25.8763 3.85248 25.7667 3.9651C25.6571 4.07773 25.5701 4.21144 25.5108 4.35859C25.4515 4.50575 25.421 4.66347 25.421 4.82275C25.421 4.98203 25.4515 5.13974 25.5108 5.2869C25.5701 5.43405 25.6571 5.56776 25.7667 5.68039C25.9442 5.86264 26.0851 6.07905 26.1811 6.31724C26.2772 6.55544 26.3267 6.81076 26.3267 7.06861C26.3267 7.32646 26.2772 7.58178 26.1811 7.81997C26.0851 8.05817 25.9442 8.27458 25.7667 8.45683ZM11.6195 14.659C11.7292 14.7716 11.8593 14.861 12.0025 14.9219C12.1457 14.9829 12.2992 15.0142 12.4542 15.0142C12.6092 15.0142 12.7627 14.9829 12.906 14.9219C13.0492 14.861 13.1793 14.7716 13.2889 14.659C13.3985 14.5464 13.4855 14.4127 13.5448 14.2655C13.6041 14.1184 13.6346 13.9606 13.6346 13.8014C13.6346 13.6421 13.6041 13.4844 13.5448 13.3372C13.4855 13.19 13.3985 13.0563 13.2889 12.9437C12.9315 12.575 12.7309 12.0758 12.7309 11.5555C12.7309 11.0351 12.9315 10.536 13.2889 10.1673C14.0883 9.34424 14.5373 8.22896 14.5373 7.06619C14.5373 5.90341 14.0883 4.78813 13.2889 3.9651C13.1793 3.85248 13.0492 3.76313 12.906 3.70218C12.7627 3.64123 12.6092 3.60986 12.4542 3.60986C12.2992 3.60986 12.1457 3.64123 12.0025 3.70218C11.8593 3.76313 11.7292 3.85248 11.6195 3.9651C11.5099 4.07773 11.423 4.21144 11.3637 4.35859C11.3043 4.50575 11.2738 4.66347 11.2738 4.82275C11.2738 4.98203 11.3043 5.13974 11.3637 5.2869C11.423 5.43405 11.5099 5.56776 11.6195 5.68039C11.9769 6.04909 12.1776 6.54825 12.1776 7.06861C12.1776 7.58897 11.9769 8.08813 11.6195 8.45683C10.8216 9.27966 10.3735 10.3939 10.3735 11.5555C10.3735 12.7171 10.8216 13.8313 11.6195 14.6542V14.659ZM9.59603e-06 41.7935C-0.00124782 41.473 0.121113 41.1651 0.340304 40.9372C0.559495 40.7093 0.857655 40.5798 1.16951 40.5773H9.40787C6.89904 38.9084 5.01542 36.4144 4.06496 33.5029C3.98951 33.2671 3.9172 33.0281 3.84804 32.7858C2.79474 28.9768 2.1356 25.0643 1.88158 21.1131C1.85687 20.6635 1.92147 20.2134 2.07145 19.7902C2.22143 19.367 2.45366 18.9797 2.75399 18.6516C3.05767 18.3224 3.42321 18.0598 3.82849 17.88C4.23378 17.7001 4.67037 17.6065 5.11185 17.605H31.6331C32.0745 17.6065 32.5111 17.7001 32.9164 17.88C33.3217 18.0598 33.6873 18.3224 33.9909 18.6516C34.2915 18.9795 34.5239 19.3669 34.6739 19.7901C34.8239 20.2133 34.8883 20.6635 34.8633 21.1131C34.8162 21.9465 34.7407 22.8042 34.6417 23.6715H35.3396C36.1989 23.6713 37.0469 23.8721 37.8194 24.2588C38.5918 24.6454 39.2685 25.2077 39.798 25.9031C40.3274 26.5984 40.6959 27.4086 40.8753 28.272C41.0547 29.1354 41.0404 30.0295 40.8334 30.8864C40.5276 32.1435 39.8219 33.2596 38.8283 34.0576C37.8347 34.8556 36.6101 35.2896 35.3491 35.2909H31.9349C30.8531 37.439 29.2458 39.2609 27.271 40.5773H35.3396C35.6523 40.5773 35.9522 40.7049 36.1733 40.9321C36.3943 41.1592 36.5186 41.4674 36.5186 41.7886C36.5186 42.1099 36.3943 42.418 36.1733 42.6452C35.9522 42.8724 35.6523 43 35.3396 43H1.16951C0.858474 42.9974 0.561026 42.8687 0.341969 42.6418C0.122912 42.4149 -3.57554e-07 42.1082 9.59603e-06 41.7886V41.7935ZM32.878 32.8682H35.3443C36.0795 32.867 36.7932 32.6138 37.3724 32.1486C37.9516 31.6834 38.3631 31.0328 38.5416 30.3001C38.6617 29.801 38.6698 29.2805 38.5653 28.7778C38.4608 28.275 38.2465 27.8033 37.9385 27.3981C37.6306 26.993 37.237 26.6651 36.7876 26.4392C36.3382 26.2133 35.8446 26.0954 35.3443 26.0942H34.3257C33.9838 28.3532 33.5114 30.5893 32.911 32.7906L32.878 32.8682ZM17.0143 40.4755H19.7259C22.1603 40.4873 24.5335 39.6923 26.4933 38.2084C28.4531 36.7245 29.895 34.6309 30.605 32.2383L30.638 32.1268C31.6463 28.4904 32.2786 24.7549 32.5243 20.9823C32.531 20.8625 32.5134 20.7425 32.4729 20.63C32.4323 20.5174 32.3695 20.4147 32.2886 20.3282C32.2042 20.2372 32.1024 20.1652 31.9896 20.1168C31.8767 20.0685 31.7553 20.0447 31.6331 20.0471H5.12128C4.99948 20.046 4.87877 20.0708 4.76676 20.12C4.65476 20.1692 4.55389 20.2418 4.47051 20.333C4.38952 20.4195 4.32678 20.5222 4.2862 20.6348C4.24563 20.7474 4.22811 20.8673 4.23473 20.9871C4.4805 24.7598 5.11275 28.4953 6.12102 32.1317C6.1776 32.34 6.23891 32.5435 6.30493 32.7422C7.07278 35.024 8.52072 36.9992 10.4432 38.3874C12.3656 39.7756 14.6648 40.5062 17.0143 40.4755Z" fill="#562E70"/>
</svg>
