<svg width="39" height="54" viewBox="0 0 39 54" fill="none" xmlns="http://www.w3.org/2000/svg">
<path fill-rule="evenodd" clip-rule="evenodd" d="M6.482 5.28866C5.23136 5.28866 4.03253 5.77252 3.14908 6.63289C2.26573 7.49316 1.77 8.65933 1.77 9.8747V51.764H36.73V9.8747C36.73 8.65933 36.2343 7.49316 35.3509 6.63289C34.4675 5.77252 33.2686 5.28866 32.018 5.28866H6.482ZM6.482 3.80267C4.83011 3.80267 3.24529 4.44171 2.07634 5.58012C0.907296 6.71863 0.25 8.26338 0.25 9.8747V52.507C0.25 52.9174 0.590264 53.25 1.01 53.25H37.49C37.9097 53.25 38.25 52.9174 38.25 52.507V9.8747C38.25 8.26338 37.5927 6.71863 36.4237 5.58012C35.2547 4.44171 33.6699 3.80267 32.018 3.80267H6.482Z" fill="#562E70"/>
<path fill-rule="evenodd" clip-rule="evenodd" d="M33.0825 10.7629C33.0825 10.2542 32.8751 9.76572 32.5048 9.40514C32.1345 9.04447 31.6315 8.84133 31.1065 8.84133L7.39454 8.84133C6.86953 8.84133 6.36662 9.04446 5.99627 9.40514C5.62601 9.76572 5.41854 10.2542 5.41854 10.7629L5.41854 48.0661C5.41854 48.1037 5.43384 48.1403 5.46203 48.1678C5.49031 48.1953 5.52929 48.2113 5.57054 48.2113H32.9305C32.9718 48.2113 33.0108 48.1953 33.0391 48.1678C33.0672 48.1403 33.0825 48.1037 33.0825 48.0661V10.7629ZM34.6025 10.7629V48.0661C34.6025 48.4997 34.4257 48.9149 34.1118 49.2205C33.798 49.5261 33.373 49.6973 32.9305 49.6973H5.57054C5.12804 49.6973 4.70307 49.5261 4.38929 49.2205C4.07541 48.9149 3.89854 48.4997 3.89854 48.0661L3.89854 10.7629C3.89854 9.85821 4.26758 8.99119 4.92353 8.35238C5.57938 7.71366 6.46828 7.35535 7.39454 7.35535L31.1065 7.35535C32.0328 7.35535 32.9217 7.71366 33.5776 8.35238C34.2335 8.99119 34.6025 9.85821 34.6025 10.7629Z" fill="#562E70"/>
<path fill-rule="evenodd" clip-rule="evenodd" d="M3.89795 31.1909C3.89795 30.7805 4.23821 30.4479 4.65795 30.4479H33.8419C34.2617 30.4479 34.6019 30.7805 34.6019 31.1909C34.6019 31.6012 34.2617 31.9339 33.8419 31.9339H4.65795C4.23821 31.9339 3.89795 31.6012 3.89795 31.1909Z" fill="#562E70"/>
<path fill-rule="evenodd" clip-rule="evenodd" d="M10.4239 36.0869C10.5666 35.8923 10.7966 35.7769 11.0415 35.7769H15.6015C15.8465 35.7769 16.0764 35.8923 16.2192 36.0869L17.7034 38.1106L17.0949 38.5371L17.7034 38.1106C18.0168 38.5379 18.1855 39.0502 18.1855 39.576V46.9683C18.1855 47.222 18.1249 47.4721 18.0085 47.6987L17.3858 47.3932L18.0085 47.6987L17.1928 49.2876C17.0638 49.5387 16.801 49.6973 16.5135 49.6973H10.1295C9.84207 49.6973 9.57922 49.5387 9.45028 49.2876L8.63456 47.6987L9.2552 47.3942L8.63456 47.6987C8.51818 47.4721 8.45752 47.222 8.45752 46.9683V39.576C8.45752 39.0502 8.62622 38.5379 8.93963 38.1106L8.93963 38.1106L10.4239 36.0869ZM11.4318 37.2628L10.1749 38.9765C10.1749 38.9765 10.1749 38.9765 10.1749 38.9765C10.0464 39.1517 9.97752 39.3613 9.97752 39.576V46.9683C9.97752 46.9903 9.98279 47.0122 9.99304 47.0322L10.5984 48.2113H16.0446L16.65 47.0322L17.3292 47.3655L16.65 47.0322C16.6603 47.0122 16.6655 46.9903 16.6655 46.9683V39.576C16.6655 39.3613 16.5967 39.1517 16.4681 38.9765L15.2113 37.2628H11.4318Z" fill="#562E70"/>
<path fill-rule="evenodd" clip-rule="evenodd" d="M8.45752 36.5198C8.45752 36.1095 8.79778 35.7769 9.21752 35.7769H17.4255C17.8453 35.7769 18.1855 36.1095 18.1855 36.5198C18.1855 36.9302 17.8453 37.2628 17.4255 37.2628H9.21752C8.79778 37.2628 8.45752 36.9302 8.45752 36.5198Z" fill="#562E70"/>
<path fill-rule="evenodd" clip-rule="evenodd" d="M22.2803 34.3106C22.4231 34.116 22.653 34.0005 22.898 34.0005H27.458C27.7029 34.0005 27.9329 34.116 28.0756 34.3106L29.5598 36.3342C29.8733 36.7616 30.042 37.2739 30.042 37.7997V46.9683C30.042 47.222 29.9813 47.4721 29.8649 47.6988L29.1857 47.3655L29.8649 47.6988L29.0492 49.2876C28.9203 49.5388 28.6574 49.6973 28.37 49.6973H21.986C21.6985 49.6973 21.4357 49.5388 21.3067 49.2876L20.491 47.6988L21.1077 47.3962L20.491 47.6988C20.3746 47.4721 20.314 47.222 20.314 46.9683V37.7997C20.314 37.2739 20.4827 36.7616 20.7961 36.3342L20.7961 36.3342L22.2803 34.3106ZM23.2882 35.4865L22.0313 37.2001C22.0313 37.2001 22.0313 37.2002 22.0313 37.2002C21.9028 37.3754 21.834 37.585 21.834 37.7997V46.9683C21.834 46.9903 21.8392 47.0122 21.8495 47.0322L22.4549 48.2113H27.9011L28.5064 47.0322C28.5167 47.0122 28.522 46.9903 28.522 46.9683V37.7997C28.522 37.585 28.4531 37.3754 28.3246 37.2002L27.0677 35.4865H23.2882Z" fill="#562E70"/>
<path fill-rule="evenodd" clip-rule="evenodd" d="M20.314 34.7435C20.314 34.3332 20.6542 34.0005 21.074 34.0005H29.282C29.7017 34.0005 30.042 34.3332 30.042 34.7435C30.042 35.1539 29.7017 35.4865 29.282 35.4865H21.074C20.6542 35.4865 20.314 35.1539 20.314 34.7435Z" fill="#562E70"/>
<path fill-rule="evenodd" clip-rule="evenodd" d="M22.2803 18.3236C22.4231 18.129 22.653 18.0135 22.898 18.0135H27.458C27.7029 18.0135 27.9329 18.129 28.0756 18.3236L29.5598 20.3472C29.8733 20.7746 30.042 21.2869 30.042 21.8127V29.2049C30.042 29.4587 29.9813 29.7088 29.8649 29.9354L29.2474 29.6324L29.8649 29.9354L29.0492 31.5243C28.9203 31.7754 28.6574 31.934 28.37 31.934H21.986C21.6985 31.934 21.4357 31.7754 21.3067 31.5243L20.491 29.9354L21.1702 29.6021L20.491 29.9354C20.3746 29.7088 20.314 29.4587 20.314 29.2049V21.8127C20.314 21.2869 20.4827 20.7746 20.7961 20.3472L20.7961 20.3472L22.2803 18.3236ZM23.2882 19.4995L22.0313 21.2131C22.0313 21.2132 22.0313 21.2132 22.0313 21.2132C21.9028 21.3884 21.834 21.598 21.834 21.8127V29.2049C21.834 29.227 21.8392 29.2489 21.8495 29.2689L22.4549 30.448H27.9011L28.5064 29.2689C28.5167 29.2489 28.522 29.227 28.522 29.2049V21.8127C28.522 21.598 28.4531 21.3884 28.3246 21.2132L27.0677 19.4995H23.2882Z" fill="#562E70"/>
<path fill-rule="evenodd" clip-rule="evenodd" d="M20.314 18.7565C20.314 18.3462 20.6542 18.0135 21.074 18.0135H29.282C29.7017 18.0135 30.042 18.3462 30.042 18.7565C30.042 19.1669 29.7017 19.4995 29.282 19.4995H21.074C20.6542 19.4995 20.314 19.1669 20.314 18.7565Z" fill="#562E70"/>
<path fill-rule="evenodd" clip-rule="evenodd" d="M8.57568 20.5328C8.57568 20.1225 8.91595 19.7899 9.33568 19.7899H16.3946C16.8143 19.7899 17.1546 20.1225 17.1546 20.5328C17.1546 20.9432 16.8143 21.2758 16.3946 21.2758H9.33568C8.91595 21.2758 8.57568 20.9432 8.57568 20.5328Z" fill="#562E70"/>
<path fill-rule="evenodd" clip-rule="evenodd" d="M8.91357 24.0855C8.91357 23.6752 9.25384 23.3425 9.67357 23.3425H16.0576C16.4773 23.3425 16.8176 23.6752 16.8176 24.0855C16.8176 24.4959 16.4773 24.8285 16.0576 24.8285H9.67357C9.25384 24.8285 8.91357 24.4959 8.91357 24.0855Z" fill="#562E70"/>
<path fill-rule="evenodd" clip-rule="evenodd" d="M9.85239 1.73598C9.61223 1.73598 9.37944 1.81488 9.19163 1.9594L9.19162 1.95941L3.3048 6.48931C2.97498 6.7431 2.49715 6.68746 2.23754 6.36502C1.97794 6.04258 2.03486 5.57544 2.36468 5.32165L8.25149 0.791756C8.2515 0.791754 8.2515 0.791752 8.2515 0.79175C8.70771 0.44069 9.27174 0.250004 9.85239 0.25H28.6491C29.2297 0.249987 29.7938 0.440676 30.25 0.791756L29.8416 1.29908L30.25 0.791759L36.1368 5.32181C36.4666 5.57561 36.5235 6.04274 36.2639 6.36518C36.0043 6.68762 35.5265 6.74325 35.1967 6.48945L29.3099 1.9594L29.78 1.37558L29.3099 1.9594C29.1221 1.81488 28.8893 1.73598 28.6491 1.73598H9.85239Z" fill="#562E70"/>
</svg>
