<svg width="43" height="33" viewBox="0 0 43 33" fill="none" xmlns="http://www.w3.org/2000/svg">
<path d="M42.6887 26.3879C37.2651 20.446 37.1981 1.381 37.1981 1.18958C37.1981 0.5327 36.6631 0 36.0035 0H5.83597C5.53067 0 5.25203 0.114334 5.04047 0.301892C5.03961 0.301892 5.03961 0.30232 5.03961 0.303177C5.02284 0.317736 5.00693 0.332723 4.99145 0.348567L0.35002 4.9703C0.12599 5.1934 0 5.49615 0 5.81131V31.8078C0 31.8143 0 31.8203 0 31.8267C0 31.8275 0 31.8275 0 31.8275C0 31.828 0 31.828 0 31.8288C0.00258 31.9826 0.0344 32.1294 0.0903001 32.2639C0.14835 32.4048 0.23521 32.5371 0.35002 32.651C0.463541 32.7645 0.594261 32.8497 0.734011 32.9079C0.875911 32.9675 1.03114 33 1.19454 33H35.8332C36.4929 33 37.0273 32.4673 37.0273 31.8104V28.3778H37.1637H41.8051C42.2785 28.3778 42.7064 28.1004 42.8977 27.6691C43.0891 27.2384 43.0078 26.7361 42.6887 26.3879ZM7.03051 20.3908C7.62993 22.4753 8.38415 24.4053 9.32198 25.9987H7.03051V20.3908ZM2.38908 6.30419L4.64143 4.0612V26.6954L2.38908 28.9379V6.30419ZM34.6391 30.6204H4.07812L6.33004 28.3774H11.6367H34.6387V30.6204H34.6391ZM37.1641 25.9982H12.1879C7.8531 20.6027 7.16123 6.55941 7.05072 2.37917H34.8253C34.9178 6.38127 35.5228 19.2663 39.4801 25.9987H37.1641V25.9982Z" fill="#562E70"/>
</svg>
