<svg width="54" height="28" viewBox="0 0 54 28" fill="none" xmlns="http://www.w3.org/2000/svg">
<path d="M52.804 28H1.19601C0.538206 28 0 27.4522 0 26.7826V4.13913C0 3.46957 0.538206 2.92174 1.19601 2.92174H25.2957V1.21739C25.2957 0.547824 25.8339 -1.8994e-06 26.4917 -1.8994e-06H27.5083C28.1661 -1.8994e-06 28.7043 0.547824 28.7043 1.21739V2.98261H42.9967H44.0133C44.5568 2.98261 44.7309 2.98261 45.3887 2.98261H47.3952C48.053 2.98261 48.033 2.98261 48.598 2.98261H50.1728H52.804C53.4618 2.98261 54 3.53043 54 4.2V26.7826C54 27.4522 53.4618 28 52.804 28ZM48.5581 15.4609C48.5581 9.92174 44.1329 5.35652 38.6312 5.35652C33.1296 5.35652 28.7043 9.86087 28.7043 15.4609C28.7043 21.0609 33.1894 25.5652 38.6312 25.5652C44.0731 25.5652 48.5581 21.0609 48.5581 15.4609ZM9.74751 5.35652H4.96345H2.39203V25.5652H31.3953C28.3455 23.2522 26.3721 19.6 26.3721 15.4609C26.3721 11.3217 28.3455 7.66957 31.3953 5.35652H9.74751ZM51.608 5.35652H48.9767H45.8671C48.9169 7.66957 50.8904 11.3217 50.8904 15.4609C50.8904 19.6 48.9767 23.313 45.9269 25.5652H51.608V5.35652Z" fill="#562E70"/>
<path d="M38.6308 22.0348C42.2786 22.0348 45.2089 19.0522 45.2089 15.3391C45.2089 11.6261 42.2786 8.64349 38.6308 8.64349C34.983 8.64349 32.0527 11.6261 32.0527 15.3391C32.0527 19.0522 35.0428 22.0348 38.6308 22.0348ZM38.6308 11.0783C40.963 11.0783 42.8168 12.9652 42.8168 15.3391C42.8168 17.7131 40.963 19.6 38.6308 19.6C36.2986 19.6 34.4448 17.7131 34.4448 15.3391C34.4448 12.9652 36.3584 11.0783 38.6308 11.0783Z" fill="#562E70"/>
<path d="M22.3659 9.86084H7.29611C6.6383 9.86084 6.1001 10.4087 6.1001 11.0782C6.1001 11.7478 6.6383 12.2956 7.29611 12.2956H22.4257C23.0835 12.2956 23.6217 11.7478 23.6217 11.0782C23.5619 10.4087 23.0237 9.86084 22.3659 9.86084Z" fill="#562E70"/>
<path d="M22.3659 18.3826H7.29611C6.6383 18.3826 6.1001 18.9304 6.1001 19.6C6.1001 20.2695 6.6383 20.8174 7.29611 20.8174H22.4257C23.0835 20.8174 23.6217 20.2695 23.6217 19.6C23.5619 18.9304 23.0237 18.3826 22.3659 18.3826Z" fill="#562E70"/>
</svg>
