<svg width="51" height="39" viewBox="0 0 51 39" fill="none" xmlns="http://www.w3.org/2000/svg">
<path d="M49.8353 1.02753H1.76494C1.33852 1.02753 0.998535 1.42872 0.998535 1.91684V33.8919C0.998535 34.3867 1.34428 34.7812 1.76494 34.7812H23.3972V36.7938H17.2602C16.8337 36.7938 16.4938 37.195 16.4938 37.6831C16.4938 38.1712 16.8395 38.5724 17.2602 38.5724H24.1693H27.4367H34.3458C34.7723 38.5724 35.1122 38.1712 35.1122 37.6831C35.1122 37.195 34.7665 36.7938 34.3458 36.7938H28.2031V34.7812H49.8353C50.2617 34.7812 50.6017 34.38 50.6017 33.8919V1.91684C50.6017 1.42872 50.2617 1.02753 49.8353 1.02753ZM26.6645 36.8005H24.9358V34.7879H26.6645V36.8005ZM49.0689 33.0026H27.4367H24.1693H2.53135V2.80615H49.0689V33.0026V33.0026Z" fill="#562E70"/>
<path fill-rule="evenodd" clip-rule="evenodd" d="M49.0686 33.0026V2.80615H2.53103V33.0026H49.0686ZM48.8702 32.775H2.72944V3.0337H48.8702V32.775ZM1.76462 0.799988H49.835C50.3741 0.799988 50.7998 1.3067 50.7998 1.91684V33.8919C50.7998 34.502 50.3741 35.0087 49.835 35.0087H28.4012V36.5663H34.3455C34.8779 36.5663 35.3103 37.0719 35.3103 37.6831C35.3103 38.2933 34.8847 38.8 34.3455 38.8H17.2599C16.7274 38.8 16.295 38.2944 16.295 37.6831C16.295 37.073 16.7207 36.5663 17.2599 36.5663H23.1984V35.0087H1.76462C1.23316 35.0087 0.799805 34.5109 0.799805 33.8919V1.91684C0.799805 1.3067 1.22547 0.799988 1.76462 0.799988ZM25.1338 36.573H26.4658V35.0154H25.1338V36.573ZM1.76462 1.02753H49.835C50.2614 1.02753 50.6014 1.42873 50.6014 1.91684V33.8919C50.6014 34.38 50.2614 34.7812 49.835 34.7812H28.2027V36.7938H34.3455C34.7662 36.7938 35.1119 37.195 35.1119 37.6831C35.1119 38.1713 34.7719 38.5724 34.3455 38.5724H17.2599C16.8392 38.5724 16.4934 38.1713 16.4934 37.6831C16.4934 37.195 16.8334 36.7938 17.2599 36.7938H23.3969V34.7812H1.76462C1.34396 34.7812 0.998217 34.3867 0.998217 33.8919V1.91684C0.998217 1.42873 1.3382 1.02753 1.76462 1.02753ZM26.6642 36.8005V34.7879H24.9354V36.8005H26.6642Z" fill="#562E70"/>
</svg>
