<svg width="41" height="25" viewBox="0 0 41 25" fill="none" xmlns="http://www.w3.org/2000/svg">
<path d="M25.9457 0H4.56188C3.35199 0 2.19166 0.52157 1.33614 1.44997C0.480625 2.37837 0 3.63754 0 4.9505V20.0495C0 21.3625 0.480625 22.6216 1.33614 23.55C2.19166 24.4784 3.35199 25 4.56188 25H25.9457C27.1556 25 28.3159 24.4784 29.1714 23.55C30.0269 22.6216 30.5076 21.3625 30.5076 20.0495V17.5124L39.2321 23.3911C39.4202 23.5177 39.6381 23.5822 39.8594 23.5767L40.4296 23.3911C40.6004 23.2842 40.7426 23.1311 40.8426 22.9467C40.9425 22.7623 40.9967 22.553 40.9999 22.3391V2.66089C41.003 2.43592 40.9495 2.21429 40.8452 2.01984C40.7409 1.82538 40.5897 1.66546 40.4079 1.55728C40.2261 1.44909 40.0206 1.39673 39.8134 1.40583C39.6062 1.41493 39.4053 1.48514 39.2321 1.60891L30.5076 7.48763V4.9505C30.5076 3.63754 30.0269 2.37837 29.1714 1.44997C28.3159 0.52157 27.1556 0 25.9457 0V0ZM28.2266 20.1114C28.2266 20.7679 27.9863 21.3975 27.5585 21.8617C27.1308 22.3258 26.5506 22.5866 25.9457 22.5866H4.56188C3.95693 22.5866 3.37677 22.3258 2.94901 21.8617C2.52125 21.3975 2.28094 20.7679 2.28094 20.1114V4.9505C2.28094 4.29402 2.52125 3.66443 2.94901 3.20023C3.37677 2.73603 3.95693 2.47525 4.56188 2.47525H25.9457C26.5506 2.47525 27.1308 2.73603 27.5585 3.20023C27.9863 3.66443 28.2266 4.29402 28.2266 4.9505V20.1114ZM38.6619 4.88861V20.1114L30.5076 14.604V10.396L38.6619 4.88861Z" fill="#562E70"/>
</svg>
