<svg width="42" height="41" viewBox="0 0 42 41" fill="none" xmlns="http://www.w3.org/2000/svg">
<path d="M40.2948 27.4407H1.80435C1.33615 27.4407 0.956543 27.0753 0.956543 26.6237V1.80912C0.956543 1.35754 1.33615 0.992126 1.80435 0.992126H40.2948C40.763 0.992126 41.1426 1.35754 41.1426 1.80912V26.6237C41.1426 27.0753 40.763 27.4407 40.2948 27.4407ZM2.65216 25.8067H39.447V2.62611H2.65216V25.8067Z" fill="#562E70"/>
<path fill-rule="evenodd" clip-rule="evenodd" d="M40.295 27.8329H1.80456C1.11174 27.8329 0.549805 27.292 0.549805 26.6237V1.80913C0.549805 1.14084 1.11174 0.599976 1.80456 0.599976H40.295C40.9879 0.599976 41.5498 1.14084 41.5498 1.80913V26.6237C41.5498 27.292 40.9879 27.8329 40.295 27.8329ZM39.4472 25.8067H2.65237V2.62612H39.4472V25.8067ZM39.0403 3.01828H3.05932V25.4146H39.0403V3.01828ZM1.80456 27.4407H40.295C40.7632 27.4407 41.1429 27.0753 41.1429 26.6237V1.80913C41.1429 1.35755 40.7632 0.992132 40.295 0.992132H1.80456C1.33636 0.992132 0.956753 1.35755 0.956753 1.80913V26.6237C0.956753 27.0753 1.33636 27.4407 1.80456 27.4407Z" fill="#562E70"/>
<path d="M34.2984 40.2078C34.0815 40.2078 33.8645 40.128 33.6989 39.9685L21.0497 27.779L8.40085 39.9685C8.06968 40.2876 7.53317 40.2876 7.202 39.9685C6.87082 39.6493 6.87082 39.1323 7.202 38.8132L20.4503 26.0461C20.7682 25.7397 21.3312 25.7397 21.6491 26.0461L34.8978 38.8132C35.229 39.1323 35.229 39.6493 34.8978 39.9685C34.7322 40.128 34.5153 40.2078 34.2984 40.2078Z" fill="#562E70"/>
<path fill-rule="evenodd" clip-rule="evenodd" d="M7.2022 38.8132L20.4505 26.0461C20.7684 25.7397 21.3314 25.7397 21.6493 26.0461L34.898 38.8132C35.2292 39.1323 35.2292 39.6493 34.898 39.9685C34.7324 40.128 34.5155 40.2078 34.2986 40.2078C34.0817 40.2078 33.8647 40.128 33.6992 39.9685L21.0499 27.779L8.40106 39.9685C8.06988 40.2876 7.53338 40.2876 7.2022 39.9685C6.87103 39.6493 6.87103 39.1323 7.2022 38.8132ZM21.0499 28.3336L33.4114 40.2458C33.6563 40.4818 33.9781 40.6 34.2986 40.6C34.6191 40.6 34.9409 40.4818 35.1858 40.2458C35.6759 39.7735 35.6759 39.0082 35.1858 38.5359L21.9371 25.7688C21.4602 25.3093 20.6396 25.3093 20.1627 25.7688L6.91445 38.5359C6.91445 38.5359 6.91445 38.5359 6.91445 38.5359C6.42435 39.0082 6.42435 39.7735 6.91445 40.2458C7.40455 40.718 8.19872 40.718 8.68882 40.2458L21.0499 28.3336Z" fill="#562E70"/>
<path d="M7.11158 15.1407C7.11158 14.6895 7.49078 14.3237 7.95939 14.3237H12.9403C13.4089 14.3237 13.7881 14.6895 13.7881 15.1407C13.7881 15.5918 13.4089 15.9577 12.9403 15.9577H7.95939C7.49078 15.9577 7.11158 15.5918 7.11158 15.1407Z" fill="#562E70"/>
<path fill-rule="evenodd" clip-rule="evenodd" d="M6.70443 15.1407C6.70443 14.473 7.26569 13.9315 7.95918 13.9315H12.9401C13.6336 13.9315 14.1948 14.473 14.1948 15.1407C14.1948 15.8083 13.6336 16.3498 12.9401 16.3498H7.95918C7.26569 16.3498 6.70443 15.8083 6.70443 15.1407ZM7.95918 14.3237C7.49057 14.3237 7.11137 14.6895 7.11137 15.1407C7.11137 15.5919 7.49057 15.9577 7.95918 15.9577H12.9401C13.4087 15.9577 13.7879 15.5919 13.7879 15.1407C13.7879 14.6895 13.4087 14.3237 12.9401 14.3237H7.95918Z" fill="#562E70"/>
<path d="M7.11158 11.2191C7.11158 10.7679 7.49078 10.4021 7.95939 10.4021H21.6146C22.0832 10.4021 22.4624 10.7679 22.4624 11.2191C22.4624 11.6703 22.0832 12.0361 21.6146 12.0361H7.95939C7.49078 12.0361 7.11158 11.6703 7.11158 11.2191Z" fill="#562E70"/>
<path fill-rule="evenodd" clip-rule="evenodd" d="M6.70491 11.2191C6.70491 10.5515 7.26618 10.0099 7.95967 10.0099H21.6149C22.3084 10.0099 22.8696 10.5515 22.8696 11.2191C22.8696 11.8867 22.3084 12.4282 21.6149 12.4282H7.95967C7.26618 12.4282 6.70491 11.8867 6.70491 11.2191ZM7.95967 10.4021C7.49106 10.4021 7.11186 10.7679 7.11186 11.2191C7.11186 11.6703 7.49106 12.0361 7.95967 12.0361H21.6149C22.0835 12.0361 22.4627 11.6703 22.4627 11.2191C22.4627 10.7679 22.0835 10.4021 21.6149 10.4021L7.95967 10.4021Z" fill="#562E70"/>
<path d="M7.11211 7.69151C7.11211 7.24032 7.49131 6.87451 7.95992 6.87451L18.3622 6.87451C18.8308 6.87451 19.21 7.24032 19.21 7.69151C19.21 8.14269 18.8308 8.5085 18.3622 8.5085H7.95992C7.49131 8.5085 7.11211 8.14269 7.11211 7.69151Z" fill="#562E70"/>
<path fill-rule="evenodd" clip-rule="evenodd" d="M6.70495 7.69145C6.70495 7.02381 7.26622 6.4823 7.95971 6.4823L18.3619 6.4823C19.0554 6.4823 19.6167 7.02381 19.6167 7.69145C19.6167 8.35909 19.0554 8.9006 18.3619 8.9006H7.95971C7.26622 8.9006 6.70495 8.35909 6.70495 7.69145ZM7.95971 6.87446C7.4911 6.87446 7.1119 7.24027 7.1119 7.69145C7.1119 8.14263 7.4911 8.50844 7.95971 8.50844H18.3619C18.8306 8.50844 19.2098 8.14263 19.2098 7.69145C19.2098 7.24027 18.8306 6.87446 18.3619 6.87446L7.95971 6.87446Z" fill="#562E70"/>
</svg>
